<?xml version="1.0" encoding="UTF-8"?>
<svg id="Layer_1" xmlns="http://www.w3.org/2000/svg" version="1.1" viewBox="0 0 287 398">
  <!-- Generator: Adobe Illustrator 29.7.1, SVG Export Plug-In . SVG Version: 2.1.1 Build 8)  -->
  <defs>
    <style>
      .st0 {
        fill: #828282;
      }

      .st1 {
        fill: #b7b7b7;
        font-family: MyriadPro-Regular, 'Myriad Pro';
        font-size: 77.61px;
        isolation: isolate;
        opacity: .3;
      }
    </style>
  </defs>
  <path id="_形状结合" data-name="形状结合" class="st0" d="M146.32,95.53c39.68,0,78.68,2.05,118.37,6.16,6.84.68,12.32,6.84,12.32,13.68v150.53c0,7.53-6.16,13.68-13.68,13.68h-1.37c-31.47-3.42-62.95-5.47-94.42-5.47v13.68h6.84c4.11,0,6.84,2.74,6.84,6.84s-2.74,6.84-6.84,6.84h-61.58c-4.11,0-6.84-2.74-6.84-6.84s2.74-6.84,6.84-6.84h6.84v-13.68c-29.42.68-58.16,2.74-87.58,5.47-7.53.68-14.37-4.79-15.05-12.32V115.37c0-6.84,5.47-13,12.32-13.68,39-4.11,78-6.16,117-6.16ZM146.32,273.42h-13v13.68h20.53v-13.68h-7.53ZM146.32,252.89c-37.63,0-74.58,2.05-112.21,5.47l-3.42.68v6.84c38.32-4.11,77.32-6.16,115.63-6.16s77.32,2.05,117,6.16v-6.84c-39-4.11-78-6.16-117-6.16ZM146.32,109.21c-39,0-77.32,2.05-115.63,6.16v130c38.32-4.11,77.32-6.16,115.63-6.16s75.95,2.05,113.58,5.47h2.74V114.68c-38.32-3.42-77.32-5.47-116.32-5.47Z"/>
  <text class="st1" transform="translate(48.75 199)"><tspan x="0" y="0">WWW</tspan></text>
</svg>