<?xml version="1.0" encoding="UTF-8"?>
<svg id="Layer_1" xmlns="http://www.w3.org/2000/svg" version="1.1" viewBox="0 0 287 398">
  <!-- Generator: Adobe Illustrator 29.7.1, SVG Export Plug-In . SVG Version: 2.1.1 Build 8)  -->
  <defs>
    <style>
      .st0 {
        fill: #828282;
      }

      .st1 {
        fill: #b7b7b7;
        isolation: isolate;
        opacity: .3;
      }
    </style>
  </defs>
  <path id="_形状结合" data-name="形状结合" class="st0" d="M151.83,37.16c12.89-5.27,26.79.55,32.06,13.44l93.08,227.53c5.27,12.89-.55,26.79-13.44,32.06l-121.35,49.64c-12.89,5.27-26.79-.55-32.06-13.44L17.03,118.86c-5.27-12.89.55-26.79,13.44-32.06l121.35-49.64ZM64.74,90.49l-28.06,11.48c-4.55,1.86-6.34,6.14-4.48,10.69l93.08,227.53c1.86,4.55,6.14,6.34,10.69,4.48l121.35-49.64c4.55-1.86,6.34-6.14,4.48-10.69L168.72,56.81c-1.86-4.55-6.14-6.34-10.69-4.48l-28.06,11.48.17,2.59c.48,3.34-1.62,6.86-4.65,8.1l-50.06,20.48c-3.03,1.24-7,.21-9-2.52l-1.69-1.97ZM187.33,297.1c4.55-1.86,8.83-.07,10.69,4.48s.07,8.83-4.48,10.69c-4.55,1.86-8.83.07-10.69-4.48s-.07-8.83,4.48-10.69Z"/>
  <path id="_形状结合1" data-name="形状结合" class="st1" d="M69.09,159.54l15.17-6.21,6.21,15.17-15.17,6.21-6.21-15.17ZM121.83,288.48l15.17-6.21,6.21,15.17-15.17,6.21-6.21-15.17ZM87.01,116.8l15.17-6.21,6.21,15.17-15.17,6.21-6.21-15.17ZM56.68,129.21l15.17-6.21,6.21,15.17-15.17,6.21-6.21-15.17ZM99.43,147.13l15.17-6.21,6.21,15.17-15.17,6.21-6.21-15.17ZM81.5,189.88l15.17-6.21,6.21,15.17-15.17,6.21-6.21-15.17ZM111.84,177.47l15.17-6.21,6.21,15.17-15.17,6.21-6.21-15.17ZM152.17,276.07l15.17-6.21,6.21,15.17-15.17,6.21-6.21-15.17ZM117.35,104.39l15.17-6.21,6.21,15.17-15.17,6.21-6.21-15.17ZM129.76,134.72l15.17-6.21,6.21,15.17-15.17,6.21-6.21-15.17ZM182.51,263.66l15.17-6.21,6.21,15.17-15.17,6.21-6.21-15.17ZM147.69,91.97l15.17-6.21,6.21,15.17-15.17,6.21-6.21-15.17ZM160.1,122.31l15.17-6.21,6.21,15.17-15.17,6.21-6.21-15.17ZM212.85,251.25l15.17-6.21,6.21,15.17-15.17,6.21-6.21-15.17Z"/>
</svg>