<?xml version="1.0" encoding="UTF-8"?>
<svg id="Layer_1" xmlns="http://www.w3.org/2000/svg" version="1.1" viewBox="0 0 440 513">
  <!-- Generator: Adobe Illustrator 29.7.1, SVG Export Plug-In . SVG Version: 2.1.1 Build 8)  -->
  <defs>
    <style>
      .st0, .st1 {
        fill-rule: evenodd;
      }

      .st0, .st2 {
        fill: #1b3764;
      }

      .st1 {
        fill: #fff;
      }
    </style>
  </defs>
  <g>
    <path class="st2" d="M29.54,452.8c0-21.82,15.16-36.01,35.47-36.01s35.15,13.54,35.15,35.47-15.26,35.25-35.58,35.25-35.04-13.76-35.04-34.72ZM66.4,482.36c10.53,0,13.54-9.78,13.54-26.87,0-20.31-4.51-33.53-16.77-33.53-10.43,0-13.54,9.57-13.54,27.62,0,19.35,4.62,32.78,16.77,32.78Z"/>
    <path class="st2" d="M113.8,476.24v-22.57c0-3.87-.86-6.02-7.09-6.77v-3.44c7.09-1.07,15.91-2.9,22.36-6.23l2.15,2.04-4.19,9.03h3.55c4.94-5.37,9.24-10.32,18.06-10.32,11.82,0,14.19,9.78,14.19,16.55v21.71c0,4.73,1.93,5.27,7.09,6.34v3.65h-30.63v-3.65c3.65-1.08,5.59-1.61,5.59-6.34v-19.78c0-7.74-2.58-9.14-5.05-9.14-2.69,0-5.48,1.18-8.06,4.84v24.08c0,4.73,1.83,5.27,5.48,6.34v3.65h-30.52v-3.65c5.16-1.08,7.09-1.61,7.09-6.34Z"/>
    <path class="st2" d="M181.52,476.24v-22.57c0-3.87-.86-6.02-7.09-6.77v-3.44c6.13-.86,17.52-2.69,22.79-6.23l2.26,2.04v36.97c0,4.73,1.83,5.27,7.09,6.34v3.65h-32.14v-3.65c5.16-1.08,7.09-1.61,7.09-6.34ZM193.13,413.47c4.62,0,9.89,4.08,11.39,8.81-4.41,2.69-9.78,6.23-14.08,10.64l-4.73-2.58c1.18-6.23,4.51-12.79,7.42-16.88Z"/>
    <path class="st2" d="M218.71,476.24v-22.68c0-3.87-.86-6.02-7.63-6.66v-3.44c7.63-1.18,16.12-2.9,24.4-6.23l2.15,2.04-1.4,13.22h3.44c3.55-10,7.31-15.26,13.44-15.26,1.5,0,2.58.21,4.08.86v15.8c-2.79-1.5-5.59-1.72-7.2-1.72-10,0-13.33,8.28-13.33,15.05v9.03c0,4.73,2.58,5.27,7.95,6.34v3.65h-33.53v-3.65c5.05-1.08,7.63-1.61,7.63-6.34Z"/>
    <path class="st2" d="M269.34,476.24v-22.57c0-3.87-.86-6.02-7.09-6.77v-3.44c6.88-1.29,16.55-2.9,22.79-6.23l2.26,2.04v36.97c0,4.73,1.83,5.27,7.09,6.34v3.65h-32.14v-3.65c5.16-1.08,7.09-1.61,7.09-6.34ZM278.04,414.33c5.59,0,10.53,4.3,10.53,10s-4.94,10.21-10.53,10.21-10.53-4.62-10.53-10.21,4.94-10,10.53-10Z"/>
    <path class="st2" d="M299.43,462.69c0-16.12,12.15-24.72,28.16-24.72,14.19,0,20.21,6.88,20.21,13.01,0,3.33-1.93,6.23-6.56,6.23s-6.56-2.47-8.28-9.24c-1.29-5.05-2.9-5.37-4.94-5.37-7.2,0-10.43,5.8-10.43,15.05,0,11.29,5.8,19.88,16.23,19.88,3.76,0,8.92-.97,10.96-3.01l2.36,2.15c-2.58,6.77-10,10.53-20.42,10.53-16.23,0-27.3-9.24-27.3-24.51Z"/>
    <path class="st2" d="M385.53,478.71c-3.44,3.87-9.14,8.28-17.41,8.28-6.45,0-14.08-2.69-14.08-11.39,0-9.89,9.35-12.04,22.89-16.02,2.04-.75,6.23-1.29,8.6-4.51v-2.36c0-8.28-3.33-9.67-8.81-9.67-1.72,0-2.36,1.18-2.9,2.69-3.12,9.24-6.02,11.93-9.89,11.93-4.3,0-6.23-3.01-6.23-5.7,0-8.38,18.59-13.97,28.27-13.97,11.18,0,17.52,6.66,17.52,16.66v20.74c0,3.33,3.55,4.3,8.06,1.61v3.44c-5.27,3.12-8.38,5.16-15.91,6.56-4.62,0-9.57-3.98-10.1-8.28ZM377.57,479.35c2.9,0,5.48-2.15,7.96-5.59v-11.93l-6.88,1.72c-4.52,1.29-6.77,5.05-6.77,8.38s1.61,7.42,5.7,7.42Z"/>
  </g>
  <path class="st0" d="M410.32,352.54h-49.24c32.84-34.76,52.99-81.65,52.99-133.25,0-107.18-86.88-194.06-194.06-194.06S25.94,112.12,25.94,219.3c0,51.6,20.14,98.49,52.99,133.25H29.68c-2.07,0-3.74,1.68-3.74,3.74v7.49c0,2.07,1.68,3.74,3.74,3.74h380.64c2.07,0,3.74-1.68,3.74-3.74v-7.49c0-2.07-1.68-3.74-3.74-3.74Z"/>
  <path class="st1" d="M326.45,294.33c-1.33-2.49-2.66-4.97-4-7.46-.4-.86-.84-1.77-1.29-2.68-17.27-35.68-50.4-62.23-90.25-70.48.02-.46.03-.91.03-1.37,0-13.45-8.51-24.91-20.45-29.29l.74-.74c.28-.28.28-.73,0-1.01l-.54-.54h0c.96-3.43,1.02-7.34-1.75-10.79-2.69-3.36-8.11-6.3-13.64-6.21-2.8.04-5.86,1.36-7.26,3.32-1.1,1.53-.93,2.05-1.19,3.89-.14,1-1.12,1.66-1.58,2.48-.01.02-.02.04-.03.05,0,0,0,0,0,0h0c-.22.4-.26.91-.05,1.35.33.7,1.15,1.01,1.86.74-.34.93-1.1,1.66-2.06,1.96-.31.23-.53.58-.53.99v.27c0,.54.33,1,.81,1.19,0,.01,0,.03.01.04-.44.7-.71,1.52-.71,2.41,0,2.04,1.49,3.42,3.2,4.33,1.33.7,5.05,2.32,7.6,2.75.08.07.16.14.24.22-.23,0-.45.02-.68.02-3.35,0-6.56-.6-9.53-1.69-.67-1.57-2.23-2.7-4.19-3.35h0l-2.27-1.75c-.53-.4-1.28-.31-1.69.22l-.11.14c-.41.53-.31,1.28.22,1.69l.94.72c-.98,1.07-1.63,2.71-1.63,4.08,0,2.41,1.88,4.36,4.25,4.51l-.02.03c3.12,2.3,6.76,3.93,10.69,4.75v.26s.31,1.08.58,1.14c.24.05.49.08.74.11,1.26.18,2.55.27,3.86.27,1.62,0,3.21-.15,4.76-.42-1.8,2.91-3.01,6.07-3.63,9.32-.06.33-.14.75-.17,1.01-.01.1-.03.23-.04.37-25.51,1.32-49.06,10.02-68.56,24.01-22.95-17.04-37.82-44.34-37.82-75.12,0-43.25,29.36-79.63,69.23-90.33.9-.19,10.94-2.29,14.45-2.02,9.84.76,20.81,3.27,22.78,2.78,6.61-1.62,6.62-7.3,3.18-13.18-4.67-8-7.18-14.85-9.27-17.51-2.49-3.18-4.53-2.68-10.13-2.68-1.85,0-4.01.13-6.2.32-1.05.07-2.1.15-3.14.25-70.92,6.38-126.5,67.98-126.5,140.56,0,40.17,17.05,76.34,44.27,101.74,0,0,0-.01.01-.02,17.25,14.03,36.82,25.3,58.04,33.19v.05l5.86,54.53h26.81l5.83-44.41c10.79,1.75,21.85,2.67,33.14,2.67,8.77,0,17.41-.55,25.89-1.62l5.83,43.37h26.81l5.85-52.03h0s.01,0,.02-.01c12.93,13.23,30.42,22,49.93,23.75h0s3.53.34,7.2.34c13.94,0,27.04-3.58,38.45-9.85-22.33-3.98-41.45-17.23-53.23-35.64Z"/>
</svg>