<?xml version="1.0" encoding="UTF-8"?>
<svg id="Layer_1" xmlns="http://www.w3.org/2000/svg" version="1.1" viewBox="0 0 599.59 108.64">
  <!-- Generator: Adobe Illustrator 29.7.1, SVG Export Plug-In . SVG Version: 2.1.1 Build 8)  -->
  <defs>
    <style>
      .st0 {
        fill: #f7f7f7;
      }
    </style>
  </defs>
  <path class="st0" d="M149.37,40.17c-15.08,0-27.31,12.16-27.31,27.16s12.23,27.16,27.31,27.16,27.31-12.16,27.31-27.16-12.23-27.16-27.31-27.16ZM165.43,85.23c-2.74,2.23-5.7,3.18-6.9,3.55,0,0-3.31,1.02-6.72,1.02-12.49,0-22.61-10.12-22.61-22.61s10.12-22.61,22.61-22.61c3.4,0,6.72,1.02,6.72,1.02,3.4,1.05,5.87,2.67,7.35,3.82h.02c.66.58.81,1.16.53,1.58-.07.1-.14.21-.33.29-.85.35-2.15-.7-2.39-.85-2.87-1.85-4.49-2.3-5.47-2.64-.09-.03-.17.08-.1.14,1.62,1.36,1.4,1.18,2.4,1.91,5.89,4.35,8.41,8.89,8.41,8.89.05.09.12.21.21.36.79,1.41,3.33,6.02,3.13,11.82-.03.83-.44,9.1-6.84,14.3h-.02Z"/>
  <path class="st0" d="M12.9,56.93c0-21.93,16.66-38.16,39.02-38.16,10.64,0,20.21,3.44,26.77,10.43l-3.44,3.55c-6.45-6.34-14.3-8.92-23.11-8.92-19.24,0-33.75,14.19-33.75,33.11s14.51,33.11,33.75,33.11c8.81,0,16.66-2.69,23.11-9.03l3.44,3.55c-6.56,6.99-16.12,10.53-26.77,10.53-22.36,0-39.02-16.23-39.02-38.16h0Z"/>
  <path class="st0" d="M95.67,79.82V14.79h5.37v64.39c0,7.2,3.23,11.18,9.89,11.18,2.15,0,4.08-.54,5.38-1.08l.43,4.51c-1.94.75-4.3,1.18-6.45,1.18-9.57,0-14.62-5.8-14.62-15.16h0Z"/>
  <path class="st0" d="M185.64,87.78l2.47-4.3c4.3,3.66,11.93,6.77,20.21,6.77,11.82,0,16.55-4.19,16.55-10.54,0-16.34-37.19-4.3-37.19-26.34,0-8.49,7.09-15.37,21.28-15.37,7.1,0,14.83,2.15,19.24,5.48l-2.47,4.3c-4.73-3.44-10.86-5.05-16.88-5.05-10.96,0-15.8,4.51-15.8,10.53,0,16.88,37.19,4.95,37.19,26.34,0,9.14-7.85,15.37-22.14,15.37-9.24,0-18.06-3.12-22.47-7.2h0Z"/>
  <path class="st0" d="M286.58,82.3l3.12,3.55c-4.95,6.02-12.58,9.14-21.18,9.14-16.98,0-29.02-11.82-29.02-28.49s11.39-28.49,27.3-28.49c14.94,0,25.58,11.18,26.34,26.12l-47.41,9.25c2.69,10.32,11.39,16.77,22.9,16.77,7.2,0,13.65-2.58,17.95-7.85ZM244.76,66.06c0,1.08.11,2.26.22,3.33l42.78-8.38c-1.5-10-9.46-18.27-20.96-18.27-12.9,0-22.04,9.67-22.04,23.33h0Z"/>
  <path class="st0" d="M336.66,38.01v5.27c-.43,0-.86-.11-1.29-.11-12.47,0-19.89,8.28-19.89,22.15v29.24h-5.38v-56.11h5.16v12.25c3.44-8.17,10.86-12.68,21.39-12.68h.01Z"/>
  <path class="st0" d="M352.68,19.3h5.48v70.3h43.32v4.95h-48.8V19.3h0Z"/>
  <path class="st0" d="M454.15,82.3l3.12,3.55c-4.94,6.02-12.58,9.14-21.18,9.14-16.98,0-29.02-11.82-29.02-28.49s11.39-28.49,27.3-28.49c14.94,0,25.58,11.18,26.34,26.12l-47.41,9.25c2.69,10.32,11.4,16.77,22.9,16.77,7.2,0,13.65-2.58,17.95-7.85ZM412.34,66.06c0,1.08.11,2.26.21,3.33l42.78-8.38c-1.5-10-9.46-18.27-20.96-18.27-12.9,0-22.04,9.67-22.04,23.33h.01Z"/>
  <path class="st0" d="M527.89,61.76v32.79h-5.38v-32.36c0-12.68-6.77-19.35-18.17-19.35-13.22,0-21.29,8.49-21.29,21.82v29.88h-5.38v-56.11h5.16v12.15c3.76-7.85,11.61-12.58,22.25-12.58,13.65,0,22.79,8.06,22.79,23.76h.02Z"/>
  <path class="st0" d="M542.08,87.78l2.47-4.3c4.3,3.66,11.93,6.77,20.21,6.77,11.82,0,16.55-4.19,16.55-10.54,0-16.34-37.19-4.3-37.19-26.34,0-8.49,7.09-15.37,21.28-15.37,7.09,0,14.83,2.15,19.24,5.48l-2.47,4.3c-4.73-3.44-10.86-5.05-16.88-5.05-10.96,0-15.8,4.51-15.8,10.53,0,16.88,37.19,4.95,37.19,26.34,0,9.14-7.85,15.37-22.14,15.37-9.25,0-18.06-3.12-22.47-7.2h0Z"/>
</svg>