<?xml version="1.0" encoding="UTF-8"?>
<svg id="Layer_1" xmlns="http://www.w3.org/2000/svg" version="1.1" viewBox="0 0 287 398">
  <!-- Generator: Adobe Illustrator 29.7.1, SVG Export Plug-In . SVG Version: 2.1.1 Build 8)  -->
  <defs>
    <style>
      .st0 {
        fill: #828282;
      }

      .st1 {
        fill: #b7b7b7;
        isolation: isolate;
        opacity: .3;
      }
    </style>
  </defs>
  <path id="_形状结合" data-name="形状结合" class="st0" d="M72.83,65c8.16,0,14.83,6.68,14.83,14.83h0v7.42h118.67v-7.42c0-8.16,6.68-14.83,14.83-14.83h29.67c8.16,0,14.83,6.68,14.83,14.83v237.33c0,8.16-6.68,14.83-14.83,14.83h-29.67c-8.16,0-14.83-6.68-14.83-14.83v-7.42h-118.67v7.42c0,8.16-6.67,14.83-14.83,14.83h-29.67c-8.16,0-14.83-6.68-14.83-14.83V79.83c0-8.16,6.67-14.83,14.83-14.83h29.67ZM72.83,79.83h-29.67v237.33h29.67v-7.42c0-8.16,6.67-14.83,14.83-14.83h118.67c8.16,0,14.83,6.68,14.83,14.83v7.42h29.67V79.83h-29.67v7.42c0,8.16-6.68,14.83-14.83,14.83h-118.67c-8.16,0-14.83-6.67-14.83-14.83v-7.42ZM206.33,116.92c8.16,0,14.83,6.67,14.83,14.83v133.5c0,8.16-6.68,14.83-14.83,14.83h-118.67c-8.16,0-14.83-6.68-14.83-14.83v-133.5c0-8.16,6.67-14.83,14.83-14.83h118.67ZM206.33,131.75h-118.67v133.5h118.67v-133.5Z"/>
  <path id="_形状结合1" data-name="形状结合" class="st1" d="M139.58,142.88c2.22-3.71,6.67-4.45,10.38-2.22,3.71,2.22,4.45,6.67,2.22,10.38l-37.08,59.33c-2.22,3.71-6.67,4.45-10.38,2.22s-4.45-6.67-2.22-10.38l37.08-59.33ZM109.92,142.88c2.22-3.71,6.67-4.45,10.38-2.22,3.71,2.22,4.45,6.67,2.22,10.38l-14.09,22.99c-2.22,3.71-6.67,4.45-10.38,2.22-3.71-2.22-4.45-6.67-2.22-10.38l14.09-22.99ZM58,116.92c4.45,0,7.42-2.97,7.42-7.42s-2.97-7.42-7.42-7.42-7.42,2.97-7.42,7.42,2.97,7.42,7.42,7.42ZM236,116.92c4.45,0,7.42-2.97,7.42-7.42s-2.97-7.42-7.42-7.42-7.42,2.97-7.42,7.42,2.97,7.42,7.42,7.42ZM58,146.58c4.45,0,7.42-2.97,7.42-7.42s-2.97-7.42-7.42-7.42-7.42,2.97-7.42,7.42,2.97,7.42,7.42,7.42ZM236,146.58c4.45,0,7.42-2.97,7.42-7.42s-2.97-7.42-7.42-7.42-7.42,2.97-7.42,7.42,2.97,7.42,7.42,7.42ZM58,176.25c4.45,0,7.42-2.97,7.42-7.42s-2.97-7.42-7.42-7.42-7.42,2.97-7.42,7.42,2.97,7.42,7.42,7.42ZM236,176.25c4.45,0,7.42-2.97,7.42-7.42s-2.97-7.42-7.42-7.42-7.42,2.97-7.42,7.42,2.97,7.42,7.42,7.42ZM58,205.92c4.45,0,7.42-2.97,7.42-7.42s-2.97-7.42-7.42-7.42-7.42,2.97-7.42,7.42,2.97,7.42,7.42,7.42ZM236,205.92c4.45,0,7.42-2.97,7.42-7.42s-2.97-7.42-7.42-7.42-7.42,2.97-7.42,7.42,2.97,7.42,7.42,7.42ZM58,235.58c4.45,0,7.42-2.97,7.42-7.42s-2.97-7.42-7.42-7.42-7.42,2.97-7.42,7.42,2.97,7.42,7.42,7.42ZM236,235.58c4.45,0,7.42-2.97,7.42-7.42s-2.97-7.42-7.42-7.42-7.42,2.97-7.42,7.42,2.97,7.42,7.42,7.42ZM58,265.25c4.45,0,7.42-2.97,7.42-7.42s-2.97-7.42-7.42-7.42-7.42,2.97-7.42,7.42,2.97,7.42,7.42,7.42ZM236,265.25c4.45,0,7.42-2.97,7.42-7.42s-2.97-7.42-7.42-7.42-7.42,2.97-7.42,7.42,2.97,7.42,7.42,7.42ZM58,294.92c4.45,0,7.42-2.97,7.42-7.42s-2.97-7.42-7.42-7.42-7.42,2.97-7.42,7.42,2.97,7.42,7.42,7.42ZM236,294.92c4.45,0,7.42-2.97,7.42-7.42s-2.97-7.42-7.42-7.42-7.42,2.97-7.42,7.42,2.97,7.42,7.42,7.42Z"/>
</svg>