<?xml version="1.0" encoding="UTF-8"?>
<svg id="Layer_1" xmlns="http://www.w3.org/2000/svg" version="1.1" viewBox="0 0 476.13 465.02">
  <!-- Generator: Adobe Illustrator 29.7.1, SVG Export Plug-In . SVG Version: 2.1.1 Build 8)  -->
  <defs>
    <style>
      .st0 {
        fill: #f7f7f7;
      }
    </style>
  </defs>
  <path class="st0" d="M240.12,17.12C121.28,17.12,24.94,112.91,24.94,231.07s96.34,213.95,215.18,213.95,215.18-95.79,215.18-213.95S358.96,17.12,240.12,17.12ZM366.63,372.1c-21.59,17.54-44.91,25.02-54.38,27.97,0,0-26.05,8.01-52.97,8.01-98.37,0-178.11-79.74-178.11-178.11S160.91,51.85,259.28,51.85c26.79,0,52.96,8.01,52.96,8.01,26.8,8.23,46.25,21.02,57.95,30.07.04.03.08.08.12.11,5.22,4.53,6.41,9.05,4.14,12.4-.56.82-1.13,1.64-2.64,2.27-6.68,2.78-16.96-5.54-18.8-6.73-22.58-14.54-35.41-18.08-43.07-20.77-.69-.24-1.37.66-.8,1.14,12.74,10.68,11.01,9.28,18.87,15.08,46.44,34.24,66.25,70.06,66.25,70.06.43.73.95,1.63,1.63,2.83,6.26,11.08,26.25,47.46,24.66,93.1-.23,6.52-3.5,71.72-53.92,112.68Z"/>
</svg>
