<?xml version="1.0" encoding="UTF-8"?>
<svg id="Layer_1" xmlns="http://www.w3.org/2000/svg" version="1.1" viewBox="0 0 960 960">
  <!-- Generator: Adobe Illustrator 29.7.1, SVG Export Plug-In . SVG Version: 2.1.1 Build 8)  -->
  <defs>
    <style>
      .st0 {
        fill: #71ba05;
      }
    </style>
  </defs>
  <path class="st0" d="M287.61,219.34c1.85-28.75,1.27-54.97,5.69-80.33,7.22-41.36,39.27-67.57,81.3-68.01,70.59-.74,141.21-.78,211.8-.01,48.22.52,83.28,36.76,84.1,84.89.25,14.53.83,29.12-.12,43.59-.99,15.08,4.58,20.35,19.91,20.13,51.67-.73,103.36.42,155.02-.64,17.56-.36,22.4,5.36,22.24,22.45-.77,82.11-.63,164.24-.09,246.36.1,15.25-3.52,22.74-20.48,22.43-59.66-1.07-119.4.47-178.99-1.99-79.94-3.31-157.09-75.22-163.91-155.29-5.04-59.17-3.6-118.9-4.56-178.39-.22-13.32.29-23.81-18.59-24.1-19.48-.3-20.23,9.81-20.41,24.55-.74,58.76.71,117.78-4.37,176.21-7.2,82.93-83.62,153.81-166.67,157.19-58.86,2.4-117.88.92-176.81,1.77-15.17.22-20.13-5.63-20.03-20.64.53-83.57.58-167.15-.03-250.72-.11-15.61,5.56-19.88,20.43-19.71,57.44.65,114.89.26,174.6.26Z"/>
  <path class="st0" d="M275.15,841.01c-53.12,0-106.26-.63-159.37.34-18.41.33-23.45-6.25-23.27-24,.8-80.65.88-161.31-.05-241.95-.21-18.66,4.31-25.55,24.18-25,49.45,1.37,98.96.39,148.44.46,111.69.16,194.14,81.69,195.58,193.5.31,23.97-1.06,48.02.41,71.91,1.17,18.94-4.85,25.55-24.38,25.14-53.83-1.14-107.69-.4-161.54-.4Z"/>
  <path class="st0" d="M681.94,841c-53.85,0-107.71-.41-161.55.25-15.99.2-22.45-5.01-21.22-21.4,3.31-43.99.42-89.22,9.73-131.83,17.15-78.52,93.42-135.75,173.77-136.97,54.57-.83,109.17.34,163.73-.52,16.41-.26,21.23,5.21,21.1,21.3-.66,82.83-.7,165.67.02,248.5.14,16.83-6.39,21.08-21.85,20.91-54.57-.6-109.16-.23-163.74-.23Z"/>
</svg>