<?xml version="1.0" encoding="UTF-8"?>
<svg id="Layer_1" xmlns="http://www.w3.org/2000/svg" version="1.1" viewBox="0 0 960 960">
  <!-- Generator: Adobe Illustrator 29.7.1, SVG Export Plug-In . SVG Version: 2.1.1 Build 8)  -->
  <defs>
    <style>
      .st0 {
        fill: #fff;
      }

      .st1 {
        fill: red;
      }
    </style>
  </defs>
  <g id="g7433">
    <path id="path7429" class="st1" d="M877.75,278.19c-9.68-35.94-38.01-64.27-73.95-73.95-65.66-17.97-328.28-17.97-328.28-17.97,0,0-262.62,0-328.28,17.28-35.25,9.68-64.27,38.7-73.95,74.64-17.28,65.66-17.28,201.81-17.28,201.81,0,0,0,136.84,17.28,201.81,9.68,35.94,38.01,64.27,73.95,73.95,66.35,17.97,328.28,17.97,328.28,17.97,0,0,262.62,0,328.28-17.28,35.94-9.68,64.27-38.01,73.95-73.95,17.28-65.66,17.28-201.81,17.28-201.81,0,0,.69-136.84-17.28-202.5h0Z"/>
    <path id="polygon7431" class="st0" d="M391.9,354.22v251.57l218.39-125.78-218.39-125.78Z"/>
  </g>
</svg>