<?xml version="1.0" encoding="UTF-8"?>
<svg id="Layer_1" xmlns="http://www.w3.org/2000/svg" xmlns:xlink="http://www.w3.org/1999/xlink" version="1.1" viewBox="0 0 960 960">
  <!-- Generator: Adobe Illustrator 29.7.1, SVG Export Plug-In . SVG Version: 2.1.1 Build 8)  -->
  <defs>
    <style>
      .st0 {
        fill: none;
      }

      .st1 {
        fill: #0066da;
      }

      .st2 {
        fill: #2684fc;
      }

      .st3 {
        fill: #00832d;
      }

      .st4 {
        fill: #00ac47;
      }

      .st5 {
        fill: #ea4335;
      }

      .st6 {
        fill: #ffba00;
      }

      .st7 {
        clip-path: url(#clippath);
      }
    </style>
    <clipPath id="clippath">
      <rect class="st0" x="86.81" y="114.33" width="786.38" height="702.61"/>
    </clipPath>
  </defs>
  <g class="st7">
    <g>
      <path class="st1" d="M146.26,716.51l34.68,59.9c7.21,12.61,17.57,22.52,29.73,29.73l123.86-214.39H86.81c0,13.96,3.6,27.92,10.81,40.54l48.64,84.22Z"/>
      <path class="st4" d="M480,339.53l-123.86-214.39c-12.16,7.21-22.52,17.11-29.73,29.73l-228.8,396.34c-7.07,12.34-10.8,26.31-10.81,40.54h247.72l145.48-252.22Z"/>
      <path class="st5" d="M749.33,806.13c12.16-7.21,22.52-17.11,29.73-29.73l14.41-24.77,68.91-119.35c7.2-12.61,10.81-26.57,10.81-40.54h-247.73l52.71,103.59,71.16,110.8Z"/>
      <path class="st3" d="M480,339.53l123.86-214.39c-12.16-7.21-26.12-10.81-40.54-10.81h-166.64c-14.41,0-28.37,4.05-40.54,10.81l123.86,214.39Z"/>
      <path class="st2" d="M625.48,591.75h-290.95l-123.86,214.39c12.16,7.21,26.12,10.81,40.54,10.81h457.6c14.41,0,28.37-4.05,40.54-10.81l-123.86-214.39Z"/>
      <path class="st6" d="M747.98,353.04l-114.4-198.17c-7.21-12.61-17.57-22.52-29.73-29.73l-123.86,214.39,145.48,252.22h247.27c0-13.96-3.6-27.92-10.81-40.54l-113.95-198.17Z"/>
    </g>
  </g>
</svg>