<?xml version="1.0" encoding="UTF-8"?>
<svg id="Layer_1" xmlns="http://www.w3.org/2000/svg" version="1.1" viewBox="0 0 960 960">
  <!-- Generator: Adobe Illustrator 29.7.1, SVG Export Plug-In . SVG Version: 2.1.1 Build 8)  -->
  <defs>
    <style>
      .st0 {
        fill: #0078d4;
      }

      .st1 {
        fill: #28a8ea;
      }

      .st2 {
        fill: #0364b8;
      }

      .st3 {
        fill: #1490df;
      }
    </style>
  </defs>
  <path class="st2" d="M566.69,529.74l171.83-164.32c-35.69-139.17-177.45-223.06-316.62-187.37-62.67,16.07-117.11,54.93-152.68,108.97,2.66-.07,297.48,242.72,297.48,242.72Z"/>
  <path class="st0" d="M381.2,317.95v.03c-32.84-20.34-70.71-31.08-109.33-31.03-.89,0-1.77.06-2.66.07-114.88,1.42-206.85,95.7-205.43,210.58.52,41.67,13.54,82.23,37.37,116.41l257.43-32.24,197.36-159.14-174.75-104.67Z"/>
  <path class="st3" d="M738.52,365.42c-3.78-.25-7.57-.43-11.41-.43-23.05-.02-45.86,4.69-67.02,13.83v-.02s-104.13,43.82-104.13,43.82l114.79,141.8,205.22,49.89c44.29-82.22,13.54-184.77-68.68-229.06-21.24-11.44-44.69-18.21-68.77-19.84h0Z"/>
  <path class="st1" d="M101.16,614.01c38.87,55.89,102.64,89.19,170.72,89.15h455.23c62.19.02,119.36-34.11,148.86-88.85l-320.02-191.69-454.79,191.38Z"/>
</svg>